# xmcd
#
# Track frame offsets: 
#        150
#        17434
#        36125
#        52648
#        69064
#        86530
#        106450
#        121901
#        130274
#        147626
#        165444
#        182191
#        198704
#        213528
#        230172
#        245071
#        269148
#        288667
#
# Disc length: 4118 seconds
#
# Revision: 0
# Processed by: cddbd v1.5.2PL0 Copyright (c) Steve Scherf et al.
# Submitted via: ExactAudioCopy v1.3
#
DISCID=10101412
DTITLE=The Weeknd - Starboy
DYEAR=2016
DGENRE=R&B
TTITLE0=Starboy
TTITLE1=Party Monster
TTITLE2=False Alarm
TTITLE3=Reminder
TTITLE4=Rockin'
TTITLE5=Secrets
TTITLE6=True Colors
TTITLE7=Stargirl Ïnterlude
TTITLE8=Sidewalks
TTITLE9=Six Feet Under
TTITLE10=Love to Lay
TTITLE11=A Lonely Night
TTITLE12=Attention
TTITLE13=Ordinary Life
TTITLE14=Nothing Without You
TTITLE15=All I Know
TTITLE16=Die For You
TTITLE17=I Feel It Coming
EXTD=
EXTT0=
EXTT1=
EXTT2=
EXTT3=
EXTT4=
EXTT5=
EXTT6=
EXTT7=
EXTT8=
EXTT9=
EXTT10=
EXTT11=
EXTT12=
EXTT13=
EXTT14=
EXTT15=
EXTT16=
EXTT17=
PLAYORDER=
